<?xml version="1.0" encoding="UTF-8"?>
<!DOCTYPE svg PUBLIC "-//W3C//DTD SVG 1.1//EN" "http://www.w3.org/Graphics/SVG/1.1/DTD/svg11.dtd">
<!-- Creator: CorelDRAW 2021 (64-Bit) -->
<svg xmlns="http://www.w3.org/2000/svg" xml:space="preserve" width="297mm" height="210mm" version="1.1" style="shape-rendering:geometricPrecision; text-rendering:geometricPrecision; image-rendering:optimizeQuality; fill-rule:evenodd; clip-rule:evenodd"
viewBox="0 0 29700 21000"
 xmlns:xlink="http://www.w3.org/1999/xlink"
 xmlns:xodm="http://www.corel.com/coreldraw/odm/2003">
 <defs>
  <style type="text/css">
   <![CDATA[
    .fil0 {fill:#339966}
    .fil1 {fill:#CC6633}
    .fil2 {fill:#FF9933}
   ]]>
  </style>
 </defs>
 <g id="Layer_x0020_1">
  <metadata id="CorelCorpID_0Corel-Layer"/>
  <g id="_1959223731536">
   <path class="fil0" d="M19593.58 8423.35c-1289.4,945.21 -2578.78,1890.43 -3391.79,3156.47 -813.01,1266.05 -1149.65,2852.94 -284.85,3450.92 864.8,598 2931.01,207.09 3561.38,-718.74 630.37,-925.83 -175.11,-2386.59 -395.22,-3457.19 -220.09,-1070.6 145.2,-1751.03 510.48,-2431.46z"/>
   <path class="fil0" d="M11011.2 8436.76c1248.11,940.74 2496.23,1881.49 3282.43,3145.3 786.2,1263.81 1110.49,2850.7 277.39,3448.68 -833.1,598 -2823.59,207.09 -3430.86,-718.74 -607.27,-925.83 168.7,-2386.59 377.74,-3454.96 209.04,-1068.36 -148.83,-1744.32 -506.7,-2420.28z"/>
   <path class="fil1" d="M15229.06 1976.35c1647.27,81.06 2913.32,1555.19 2827.83,3292.58 -18.21,369.97 -96.4,721.92 -223.85,1046.14 -262.14,-128.91 -417.02,75.96 -456.72,-568.47 40.37,-163.05 65.74,-332.77 74.34,-507.5 174.66,-3549.42 -4610.45,-3126.49 -4752.79,-233.87 -39.23,797.22 141.55,850.64 178.14,1047.98 -185.33,166.35 -265.11,289.85 -600.72,184.79 -138.77,-391.05 -205.52,-818.17 -183.65,-1262.6 85.49,-1737.39 1490.16,-3080.11 3137.42,-2999.05z"/>
   <path class="fil2" d="M14943.25 12171.82c95.45,-1181.96 190.9,-2363.93 -49.53,-3694.78 -240.45,-1330.84 -816.79,-2810.58 -1823.62,-3041.57 -1006.84,-230.99 -2444.19,786.75 -2320.99,1764.6 123.19,977.85 1806.92,1915.79 2766.04,2737.77 959.1,821.98 1193.61,1527.98 1428.1,2233.98z"/>
   <path class="fil2" d="M15564.46 12259.67c-69.46,-1211.25 -138.94,-2422.5 92.78,-3753.35 231.72,-1330.84 764.62,-2781.28 1723.66,-2997.64 959.04,-216.35 2344.23,801.39 2225.5,1779.24 -118.72,977.85 -1741.35,1915.79 -2665.66,2737.77 -924.3,821.98 -1150.3,1527.98 -1376.28,2233.98z"/>
  </g>
 </g>
</svg>
